<?xml version="1.0" encoding="UTF-8"?>
<!DOCTYPE svg PUBLIC "-//W3C//DTD SVG 1.1//EN" "http://www.w3.org/Graphics/SVG/1.1/DTD/svg11.dtd">
<!-- Creator: CorelDRAW 2020 (64-Bit) -->
<svg xmlns="http://www.w3.org/2000/svg" xml:space="preserve" width="23.0091mm" height="19.086mm" version="1.1" style="shape-rendering:geometricPrecision; text-rendering:geometricPrecision; image-rendering:optimizeQuality; fill-rule:evenodd; clip-rule:evenodd"
viewBox="0 0 384.11 318.62"
 xmlns:xlink="http://www.w3.org/1999/xlink"
 xmlns:xodm="http://www.corel.com/coreldraw/odm/2003">
 <defs>
  <style type="text/css">
   <![CDATA[
    .fil0 {fill:#E31E24}
    .fil1 {fill:#E31E24;fill-rule:nonzero}
   ]]>
  </style>
 </defs>
 <g id="Слой_x0020_1">
  <metadata id="CorelCorpID_0Corel-Layer"/>
  <path class="fil0" d="M182.8 122.58c-2.43,-5.16 -6.51,-9.34 -11.81,-13.21 -6.09,-4.45 -13.96,-8.63 -22.79,-13.28 -6.57,-3.46 -14.8,-6.59 -24.25,-7.98 -7.59,-1.12 -15.94,-1.12 -24.83,0.71 -8.69,1.79 -16.51,5.51 -23.37,11.53 -7,6.14 -13.16,14.78 -18.43,26.3 -4.23,14.96 -6.02,26.98 -5.4,37.73 0.6,10.55 3.59,20.27 8.91,30.83 7.28,14.42 22.12,30.14 39.26,44.55 21.97,18.47 47.38,34.5 65.9,43.18l0.55 0.23c10.57,5.62 18.86,10.76 24.87,15.41l2 1.61 2 -1.61c6.01,-4.65 14.3,-9.79 24.87,-15.41l0.55 -0.23c18.53,-8.68 43.94,-24.71 65.9,-43.18 17.14,-14.41 31.98,-30.13 39.26,-44.55 5.33,-10.55 8.31,-20.28 8.91,-30.83 0.61,-10.75 -1.18,-22.77 -5.4,-37.73 -5.26,-11.52 -11.43,-20.15 -18.43,-26.3 -6.86,-6.02 -14.68,-9.74 -23.37,-11.53 -8.88,-1.83 -17.24,-1.83 -24.83,-0.71 -9.45,1.39 -17.68,4.52 -24.25,7.98 -8.82,4.65 -16.69,8.82 -22.79,13.28 -5.3,3.88 -9.39,8.05 -11.81,13.21l-10.63 22.62 -10.63 -22.62zm10.63 -4.97c-6.78,-14.43 -21.28,-22.19 -39.75,-31.92 -13.71,-7.23 -33.63,-13.16 -56.9,-8.37 -21.37,4.4 -38.45,18.3 -50.58,45.45 -9.44,33.03 -7.95,53.73 4.16,77.73 18.07,35.81 75.92,76.77 110.68,93.06 20.18,10.73 30.97,19.11 32.39,25.06 1.42,-5.95 12.21,-14.33 32.39,-25.06 34.77,-16.29 92.62,-57.25 110.68,-93.06 12.11,-24 13.59,-44.7 4.16,-77.73 -12.13,-27.15 -29.21,-41.05 -50.58,-45.45 -23.26,-4.79 -43.19,1.15 -56.9,8.37 -18.47,9.73 -32.97,17.49 -39.75,31.92z"/>
  <path class="fil1" d="M5.89 194.62c-3.25,0 -5.89,-2.64 -5.89,-5.89 0,-3.25 2.64,-5.89 5.89,-5.89l124.76 0 10.28 -177.29c0.18,-3.24 2.95,-5.72 6.19,-5.54 2.9,0.16 5.19,2.4 5.51,5.19l36.27 228.44 36.92 -189.13c0.62,-3.19 3.71,-5.27 6.9,-4.65 2.84,0.55 4.8,3.06 4.76,5.85l8.13 167.46 24.93 -27.48c1.15,-1.27 2.72,-1.91 4.3,-1.93l103.36 -0.89c3.24,-0.03 5.89,2.58 5.91,5.82 0.03,3.24 -2.58,5.89 -5.82,5.91l-100.78 0.86 -32.53 35.86c-1.02,1.24 -2.54,2.06 -4.27,2.14 -3.24,0.15 -5.99,-2.35 -6.14,-5.59l-6.48 -133.54 -34 174.14c-0.47,2.35 -2.35,4.27 -4.85,4.67 -3.2,0.51 -6.21,-1.68 -6.72,-4.88l-33 -207.83 -7.43 128.29c0,3.25 -2.64,5.89 -5.89,5.89l-130.3 0z"/>
 </g>
</svg>
